<svg width="800" height="450" viewBox="0 0 800 450" fill="none" xmlns="http://www.w3.org/2000/svg">
<g clip-path="url(#clip0_1_2)">
<rect width="800" height="450" fill="white"/>
<rect x="95" y="156" width="133" height="133" rx="20" fill="#353535"/>
<path d="M95 239.5C95 239.5 133 260 164 260C195 260 228 239.5 228 239.5V176C228 176 195 156 164 156C133 156 95 176 95 176V239.5Z" fill="#00D2FF"/>
<path d="M95 239.5C95 239.5 133 260 164 260C195 260 228 239.5 228 239.5V201C228 201 195 180 164 180C133 180 95 201 95 201V239.5Z" fill="#D7783F"/>
<path d="M95 252C95 252 133 273 164 273C195 273 228 252 228 252V224C228 224 195 203 164 203C133 203 95 224 95 224V252Z" fill="#72838C"/>
<path d="M95 268C95 268 133 289 164 289C195 289 228 268 228 268V239.5C228 239.5 195 219 164 219C133 219 95 239.5 95 239.5V268Z" fill="#4E5C63"/>
<text x="252" y="252" fill="black" font-family="sans-serif" font-weight="700" font-size="96">VarveDB</text>
</g>
<defs>
<clipPath id="clip0_1_2">
<rect width="800" height="450" fill="white"/>
</clipPath>
</defs>
</svg>